<?xml version="1.0" standalone="no"?>
<!DOCTYPE svg PUBLIC "-//W3C//DTD SVG 20010904//EN"
 "http://www.w3.org/TR/2001/REC-SVG-20010904/DTD/svg10.dtd">
<svg version="1.0" xmlns="http://www.w3.org/2000/svg"
 width="1024.000000pt" height="1024.000000pt" viewBox="0 0 1024.000000 1024.000000"
 preserveAspectRatio="xMidYMid meet">

<g transform="translate(0.000000,1024.000000) scale(0.100000,-0.100000)"
fill="#000000" stroke="none">
<path d="M0 5120 l0 -5120 5120 0 5120 0 0 5120 0 5120 -5120 0 -5120 0 0
-5120z m3838 691 c284 -84 465 -316 488 -626 12 -152 -27 -333 -98 -453 -54
-93 -170 -203 -259 -246 -150 -71 -198 -79 -519 -80 l-285 -1 -3 718 -2 719
302 -5 c275 -3 310 -6 376 -26z m1377 14 c126 -33 219 -106 277 -217 32 -60
33 -68 33 -173 0 -123 -12 -161 -77 -246 l-35 -45 43 -47 c177 -196 117 -515
-119 -633 -113 -58 -162 -64 -519 -64 l-318 0 0 720 0 720 328 0 c262 0 340
-3 387 -15z m907 -177 c194 -298 293 -447 298 -447 3 0 37 50 76 112 98 154
249 389 298 465 l40 62 123 0 123 0 0 -720 0 -720 -135 0 -135 0 0 462 0 462
-64 -100 c-213 -331 -326 -495 -336 -489 -4 2 -92 133 -196 291 l-189 286 -3
-456 -2 -456 -135 0 -135 0 0 720 0 720 124 0 124 0 124 -192z"/>
<path d="M3430 5124 l0 -446 158 4 c152 3 159 4 224 35 37 17 87 50 111 72
172 159 173 495 2 666 -85 86 -182 115 -376 115 l-119 0 0 -446z"/>
<path d="M4772 5429 l3 -141 189 2 c199 1 233 7 270 49 29 32 33 117 7 158
-40 63 -77 73 -286 73 l-186 0 3 -141z"/>
<path d="M4770 4841 l0 -171 178 0 c97 0 194 5 214 10 85 24 139 110 119 188
-15 54 -51 96 -103 118 -35 14 -78 19 -225 22 l-183 4 0 -171z"/>
</g>
</svg>
